<svg id="Layer_1" data-name="Layer 1" xmlns="http://www.w3.org/2000/svg" width="297" height="104" viewBox="0 0 297 104">
  <defs>
    <style>
      .cls-1, .cls-4 {
        fill: #444;
      }

      .cls-2 {
        fill: #222;
      }

      .cls-3 {
        fill: #fff;
        opacity: 0.3;
      }

      .cls-4 {
        font-size: 9.56px;
        font-family: Helvetica-Bold, Helvetica;
        font-weight: 700;
      }
    </style>
  </defs>
  <title>CS-Logo</title>
  <polygon class="cls-1" points="181.43 54.99 189.99 53.61 189.99 61.12 181.42 62.62 181.43 54.99"/>
  <g>
    <path class="cls-2" d="M85.39,62.58a118.08,118.08,0,0,1-37,27.72l-1.76.83-1.72-.91A140.58,140.58,0,0,1,8.56,62.78,34.78,34.78,0,0,1,1.29,51.49V95.83a6.28,6.28,0,0,0,6.26,6.26H85.4a6.28,6.28,0,0,0,6.26-6.26V53.07A35.26,35.26,0,0,1,85.39,62.58Z"/>
    <path class="cls-1" d="M6.69,7.4V38.81a26,26,0,0,0,7.49,18.71,132.47,132.47,0,0,0,32.62,25A110.75,110.75,0,0,0,79.65,57.44a26.08,26.08,0,0,0,7.07-18.26V7.53a181.78,181.78,0,0,0-40.5-4.68A176.39,176.39,0,0,0,6.69,7.4Z"/>
  </g>
  <path class="cls-1" d="M133.46,46.52q-9.71,0-14.8-5.4t-5.09-15.34A23.61,23.61,0,0,1,115.13,17a19,19,0,0,1,4.25-6.55,17.79,17.79,0,0,1,6.44-4.05A23.21,23.21,0,0,1,133.92,5a25.94,25.94,0,0,1,4.6.37,29.94,29.94,0,0,1,3.62.86,18,18,0,0,1,2.59,1q1,.52,1.49.8l-2.59,7.24a21.67,21.67,0,0,0-4.28-1.67,20.45,20.45,0,0,0-5.55-.69,12.25,12.25,0,0,0-4.05.69,9.16,9.16,0,0,0-3.51,2.21,11,11,0,0,0-2.44,3.94,16.51,16.51,0,0,0-.92,5.86,20.92,20.92,0,0,0,.6,5.14,10.91,10.91,0,0,0,2,4.11A9.36,9.36,0,0,0,129,37.58a12.56,12.56,0,0,0,5.29,1,24,24,0,0,0,3.51-.23,25.83,25.83,0,0,0,2.76-.55,14.41,14.41,0,0,0,2.13-.72l1.67-.75,2.47,7.18a20.94,20.94,0,0,1-5.34,2.07A31.14,31.14,0,0,1,133.46,46.52Z"/>
  <path class="cls-1" d="M163.39,14.68a19.82,19.82,0,0,1,6.32.86A9.82,9.82,0,0,1,173.76,18a9.1,9.1,0,0,1,2.15,3.91,19.3,19.3,0,0,1,.63,5.11V44.85q-1.84.4-5.11.95a49.16,49.16,0,0,1-7.93.55,25.19,25.19,0,0,1-5.31-.52,11.53,11.53,0,0,1-4.11-1.7,7.75,7.75,0,0,1-2.64-3.07,10.61,10.61,0,0,1-.92-4.65,8.82,8.82,0,0,1,1.06-4.48A8.19,8.19,0,0,1,154.43,29a12.87,12.87,0,0,1,4.08-1.58,22.9,22.9,0,0,1,4.77-.49,27.41,27.41,0,0,1,3,.14,13.35,13.35,0,0,1,2.1.37v-.8A4.74,4.74,0,0,0,167,23.13q-1.32-1.32-4.6-1.32a29.36,29.36,0,0,0-4.31.32,18.53,18.53,0,0,0-3.68.89l-1.09-6.89q.75-.23,1.87-.49t2.44-.46q1.32-.2,2.79-.35T163.39,14.68Zm.69,25.05q1.26,0,2.41-.06a16.47,16.47,0,0,0,1.84-.17V33q-.52-.12-1.55-.23a17.21,17.21,0,0,0-1.9-.12,17,17,0,0,0-2.27.14,5.92,5.92,0,0,0-1.87.55,3.19,3.19,0,0,0-1.26,1.09,3,3,0,0,0-.46,1.72A2.93,2.93,0,0,0,160.38,39,7.46,7.46,0,0,0,164.08,39.74Z"/>
  <path class="cls-1" d="M231.54,30.6a19.13,19.13,0,0,1-1.06,6.55,13.85,13.85,0,0,1-3.07,5,13.52,13.52,0,0,1-4.94,3.19,18.56,18.56,0,0,1-6.67,1.12q-1.55,0-3.25-.14t-3.33-.37q-1.64-.23-3.13-.55t-2.64-.66V2.5L212,1.12V16.18a16.14,16.14,0,0,1,3-1,15.36,15.36,0,0,1,3.33-.34A13.65,13.65,0,0,1,224,16a11.16,11.16,0,0,1,4.14,3.19,14.33,14.33,0,0,1,2.53,5A22.66,22.66,0,0,1,231.54,30.6Zm-8.73-.23q0-8.27-6.09-8.27a10.06,10.06,0,0,0-2.61.35,7.42,7.42,0,0,0-2.1.86V38.87q.63.12,1.61.2t2.13.09A6.15,6.15,0,0,0,221,36.75,10.49,10.49,0,0,0,222.81,30.37Z"/>
  <path class="cls-1" d="M265.2,30.54a19.64,19.64,0,0,1-1,6.52,14.17,14.17,0,0,1-3,5.06,13.43,13.43,0,0,1-4.68,3.25,15.63,15.63,0,0,1-6.12,1.15,15.47,15.47,0,0,1-6.06-1.15,13.41,13.41,0,0,1-4.68-3.25,14.85,14.85,0,0,1-3-5.06,18.7,18.7,0,0,1-1.09-6.52A18,18,0,0,1,236.61,24a14.72,14.72,0,0,1,3.1-5,13.93,13.93,0,0,1,4.71-3.22,15.18,15.18,0,0,1,5.95-1.15,15.33,15.33,0,0,1,6,1.15A13.65,13.65,0,0,1,261.06,19a14.62,14.62,0,0,1,3,5A18.48,18.48,0,0,1,265.2,30.54Zm-8.73,0a10.77,10.77,0,0,0-1.58-6.23A5.17,5.17,0,0,0,250.38,22a5.24,5.24,0,0,0-4.54,2.27,10.62,10.62,0,0,0-1.61,6.23,10.89,10.89,0,0,0,1.61,6.29,5.2,5.2,0,0,0,4.54,2.33,5.13,5.13,0,0,0,4.51-2.33A11.05,11.05,0,0,0,256.47,30.54Z"/>
  <path class="cls-1" d="M269.15,16.52a48,48,0,0,1,5.63-1.18A46.29,46.29,0,0,1,282,14.8a17.67,17.67,0,0,1,6.41,1,9.64,9.64,0,0,1,4.05,2.84A11.09,11.09,0,0,1,294.6,23a23.22,23.22,0,0,1,.63,5.63V45.71h-8.56v-16q0-4.14-1.09-5.86T281.5,22.1q-.92,0-2,.09c-.69.06-1.3.13-1.84.2V45.71h-8.56Z"/>
  <path class="cls-1" d="M128.89,94.57a14.11,14.11,0,0,0,3.42-.35,6.28,6.28,0,0,0,2.17-.94,3.16,3.16,0,0,0,1.13-1.41,5,5,0,0,0,.31-1.82,4.21,4.21,0,0,0-2-3.55,28.76,28.76,0,0,0-6.91-3q-2.13-.75-4.27-1.73a15.76,15.76,0,0,1-3.83-2.45,11.71,11.71,0,0,1-2.76-3.58,11.2,11.2,0,0,1-1.07-5.12,12.66,12.66,0,0,1,1.13-5.43,11.59,11.59,0,0,1,3.2-4.11,14.66,14.66,0,0,1,5-2.61,22.56,22.56,0,0,1,6.65-.91,26.6,26.6,0,0,1,12.87,3l-2.82,7.72a27,27,0,0,0-4-1.66,17.58,17.58,0,0,0-5.37-.72,9.85,9.85,0,0,0-5.05,1,3.28,3.28,0,0,0-1.54,3,3.44,3.44,0,0,0,.57,2,5.47,5.47,0,0,0,1.6,1.48,14,14,0,0,0,2.39,1.19q1.35.53,3,1.1,3.39,1.26,5.9,2.48a15.79,15.79,0,0,1,4.17,2.86,10.38,10.38,0,0,1,2.48,3.83,15.43,15.43,0,0,1,.82,5.34,11.33,11.33,0,0,1-4.27,9.45q-4.27,3.36-12.87,3.36a35.77,35.77,0,0,1-5.21-.34,34.11,34.11,0,0,1-4.11-.85,23.73,23.73,0,0,1-3.08-1.07,22.87,22.87,0,0,1-2.17-1.07l2.76-7.78a24.58,24.58,0,0,0,4.8,1.91A24.9,24.9,0,0,0,128.89,94.57Z"/>
  <path class="cls-1" d="M150.58,102.12V58.91l8.56-1.38V72a17.64,17.64,0,0,1,2.21-.54A13.87,13.87,0,0,1,164,71.2a16.19,16.19,0,0,1,6.12,1A9.52,9.52,0,0,1,174,75.05a11,11,0,0,1,2.07,4.37,24.31,24.31,0,0,1,.6,5.63v17.07h-8.56v-16q0-4.14-1.06-5.86t-3.94-1.72a11,11,0,0,0-2.15.2q-1,.2-1.81.43v23Z"/>
  <path class="cls-1" d="M193.95,87.23a18.48,18.48,0,0,1,1.24-7,15.07,15.07,0,0,1,3.25-5,13.49,13.49,0,0,1,4.62-3,14.47,14.47,0,0,1,5.37-1q6.43,0,10.17,3.94t3.73,11.58q0,.75-.06,1.64t-.12,1.58H202.74A5.68,5.68,0,0,0,205.21,94a9.93,9.93,0,0,0,5.86,1.55,24.69,24.69,0,0,0,4.63-.43,17.41,17.41,0,0,0,3.71-1.06l1.15,7a11.69,11.69,0,0,1-1.84.69,24.26,24.26,0,0,1-2.56.6q-1.41.26-3,.43a30.07,30.07,0,0,1-3.22.17,19,19,0,0,1-7.1-1.21,13.82,13.82,0,0,1-5-3.3,13.13,13.13,0,0,1-2.93-5A19.68,19.68,0,0,1,193.95,87.23ZM214.06,84a8.88,8.88,0,0,0-.37-2.13,5.34,5.34,0,0,0-1-1.84A5.21,5.21,0,0,0,211,78.67a5.42,5.42,0,0,0-2.5-.52,5.76,5.76,0,0,0-2.47.49,5.11,5.11,0,0,0-1.72,1.29,5.81,5.81,0,0,0-1.06,1.87,12.17,12.17,0,0,0-.54,2.15Z"/>
  <path class="cls-1" d="M238.74,102.69a21.45,21.45,0,0,1-6.06-.8,9,9,0,0,1-3.68-2.1,7,7,0,0,1-1.84-3.28,17.63,17.63,0,0,1-.49-4.34V58.91l8.56-1.38V90.45a11.34,11.34,0,0,0,.17,2.07,3.57,3.57,0,0,0,.66,1.55,3.49,3.49,0,0,0,1.41,1,7.72,7.72,0,0,0,2.47.52Z"/>
  <path class="cls-1" d="M269.15,101.14q-1.15.34-2.64.66t-3.13.55q-1.64.23-3.33.37t-3.25.14a19,19,0,0,1-6.67-1.09,13.37,13.37,0,0,1-4.94-3.13,13.55,13.55,0,0,1-3.07-4.94,18.83,18.83,0,0,1-1.06-6.52,22.33,22.33,0,0,1,.92-6.64,14.43,14.43,0,0,1,2.64-5,11.32,11.32,0,0,1,4.22-3.16,14.17,14.17,0,0,1,5.72-1.09,13.47,13.47,0,0,1,3.19.34,17.42,17.42,0,0,1,2.84,1V58.91l8.56-1.38ZM249.79,86.77a10.49,10.49,0,0,0,1.78,6.38,6.15,6.15,0,0,0,5.29,2.41q1.15,0,2.13-.09t1.61-.2V79.71a7.45,7.45,0,0,0-2.1-.86,10.07,10.07,0,0,0-2.62-.35Q249.79,78.5,249.79,86.77Z"/>
  <path class="cls-3" d="M20.73,29.51a16.57,16.57,0,0,1,1-5.75,13.46,13.46,0,0,1,7.41-7.89,15,15,0,0,1,6.1-1.18,19.69,19.69,0,0,1,4.12.4A20,20,0,0,1,43,16.23l-1.66,6.37a20.12,20.12,0,0,0-2.46-.75,12.92,12.92,0,0,0-3-.32,6.32,6.32,0,0,0-5.27,2.19,9,9,0,0,0-1.74,5.78A9.35,9.35,0,0,0,30.5,35.4q1.63,2.09,5.7,2.09a19.45,19.45,0,0,0,3.1-.27,13.13,13.13,0,0,0,3.05-.86l1.12,6.53a18.79,18.79,0,0,1-3.48,1,23,23,0,0,1-4.6.43,17.33,17.33,0,0,1-6.64-1.15,12.49,12.49,0,0,1-4.58-3.13,12.19,12.19,0,0,1-2.62-4.68A19.86,19.86,0,0,1,20.73,29.51Z"/>
  <path class="cls-3" d="M57.52,50.7a7.94,7.94,0,0,0,3.1-.43,1.65,1.65,0,0,0,.91-1.66,2,2,0,0,0-1.18-1.69,22.49,22.49,0,0,0-3.59-1.63,36.23,36.23,0,0,1-3.4-1.44,10,10,0,0,1-2.6-1.79,7.25,7.25,0,0,1-1.66-2.49,9.21,9.21,0,0,1-.59-3.48,7.52,7.52,0,0,1,2.94-6.26q2.94-2.3,8.08-2.3a26,26,0,0,1,4.92.45,23,23,0,0,1,3.75,1l-1.39,6.21a29.32,29.32,0,0,0-3-.86,16.48,16.48,0,0,0-3.67-.37q-3.75,0-3.75,2.09a2.16,2.16,0,0,0,.16.86,1.82,1.82,0,0,0,.64.72,9,9,0,0,0,1.31.75q.83.41,2.11.89A32.79,32.79,0,0,1,65,41.17a10.36,10.36,0,0,1,2.7,2,6.3,6.3,0,0,1,1.39,2.43,10.8,10.8,0,0,1,.4,3.1A7.14,7.14,0,0,1,66.32,55q-3.13,2.13-8.86,2.14a25,25,0,0,1-9.69-1.71L49.11,49a26,26,0,0,0,4.18,1.26A20.28,20.28,0,0,0,57.52,50.7Z"/>
  <polygon class="cls-1" points="181.45 72.17 181.45 102.2 190.01 102.2 190.01 70.67 181.45 72.17"/>
  <path class="cls-1" d="M199.41,15.52q-1-.2-2-.35c-.65-.09-1.3-.17-2-.23s-1.21-.09-1.67-.09a31.34,31.34,0,0,0-7,.72,51.65,51.65,0,0,0-5.43,1.52V45.71h0v-.19L190,44.2V22.61a11.4,11.4,0,0,1,1.7-.32,15.47,15.47,0,0,1,1.92-.14,16.68,16.68,0,0,1,3.33.32q1.55.32,2.7.6l.09-.42V15.59Z"/>
  <text class="cls-4" transform="translate(282.19 66.58)">TM</text>
</svg>
